<svg id="Layer_1" data-name="Layer 1" xmlns="http://www.w3.org/2000/svg" viewBox="0 0 2500 2500"><defs><style>.cls-1{fill:#ffd715;}.cls-2{fill:#ffcc01;}.cls-3{fill:#fcbd11;}.cls-4{fill:#ffdb53;}</style></defs><title>icon-point</title><circle class="cls-1" cx="1253.11" cy="1246.89" r="1246.89"/><circle class="cls-2" cx="1253.11" cy="1246.89" r="1058.22"/><path class="cls-3" d="M1806.76,343.7c105.38,164.52,166.48,360.12,166.48,570,0,584.44-473.78,1058.23-1058.22,1058.23-203,0-392.58-57.2-553.65-156.28,188.07,293.61,517.18,488.22,891.74,488.22,584.44,0,1058.22-473.79,1058.22-1058.23C2311.33,864.18,2109.46,529.91,1806.76,343.7Z"/><path class="cls-4" d="M380.26,1343.72c0-515.91,418.23-934.14,934.13-934.14,301.56,0,569.69,142.94,740.49,364.7-161.31-280-463.64-468.55-810-468.55C729,305.73,310.73,724,310.73,1239.86A930,930,0,0,0,504.38,1809.3C425.43,1672.24,380.26,1513.26,380.26,1343.72Z"/></svg>